# xmcd CD database file
#
# Track frame offsets:
#	150
#	2831
#	29210
#	51550
#	68959
#	90309
#	117768
#	135608
#	169916
#	195804
#	224553
#	244892
#	268593
#
# Disc length: 4008 seconds
#
# Revision: 0
# Processed by: cddbd v1.4PL0 Copyright (c) Steve Scherf et al.
# Submitted via: CDex 1.51
#
DISCID=be0fa60d
DTITLE=Celso Salim - Going Out Tonight
DYEAR=2003
DGENRE=Blues
TTITLE0=Intro
TTITLE1=Going Out Tonight
TTITLE2=Sweet Brown Eyes
TTITLE3=One For The Winter
TTITLE4=Slow Down
TTITLE5=Gold Hearted Lady
TTITLE6=What Kind Of Spell (You Put On Me)
TTITLE7=See You Tomorrow
TTITLE8=Ain't Gonna Fade Away
TTITLE9=Daydreamin'
TTITLE10=Don't Bother Me
TTITLE11=Funky Mama
TTITLE12=Gonna Stay
EXTD=YEAR: 2003
EXTT0=
EXTT1=
EXTT2=
EXTT3=
EXTT4=
EXTT5=
EXTT6=
EXTT7=
EXTT8=
EXTT9=
EXTT10=
EXTT11=
EXTT12=
PLAYORDER=
